<svg width="28" height="28" viewBox="0 0 28 28" fill="none" xmlns="http://www.w3.org/2000/svg">
<circle cx="14" cy="14" r="12" fill="white"/>
<path d="M14.1586 2.62502C7.76125 2.53861 2.5386 7.76127 2.625 14.1586C2.71032 20.294 7.70602 25.2897 13.8414 25.375C20.2398 25.4625 25.4614 20.2399 25.3739 13.8425C25.2897 7.70604 20.294 2.71033 14.1586 2.62502ZM13.2404 13.1507L16.0595 9.92416C16.2123 9.74939 16.4282 9.64244 16.6597 9.62685C16.8913 9.61126 17.1196 9.68831 17.2944 9.84103C17.4692 9.99376 17.5761 10.2097 17.5917 10.4412C17.6073 10.6728 17.5302 10.9011 17.3775 11.0759L14.5584 14.3024C14.4827 14.389 14.3908 14.4598 14.2878 14.5108C14.1848 14.5618 14.0728 14.592 13.9582 14.5997C13.8435 14.6075 13.7284 14.5925 13.6195 14.5558C13.5106 14.519 13.4101 14.4612 13.3235 14.3856C13.237 14.3099 13.1662 14.218 13.1152 14.115C13.0642 14.012 13.0339 13.9 13.0262 13.7854C13.0185 13.6707 13.0334 13.5556 13.0702 13.4467C13.1069 13.3378 13.1648 13.2373 13.2404 13.1507ZM11.1152 18.1191C10.9512 18.2831 10.7287 18.3752 10.4967 18.3752C10.2648 18.3752 10.0423 18.2831 9.87821 18.1191L7.25594 15.4941C7.17472 15.4128 7.1103 15.3163 7.06637 15.2101C7.02244 15.1039 6.99985 14.9901 6.9999 14.8752C6.99996 14.7603 7.02264 14.6465 7.06667 14.5403C7.11069 14.4342 7.17519 14.3377 7.25649 14.2565C7.33779 14.1753 7.43428 14.1109 7.54048 14.0669C7.64667 14.023 7.76047 14.0004 7.87539 14.0005C7.99031 14.0005 8.1041 14.0232 8.21025 14.0672C8.3164 14.1113 8.41284 14.1758 8.49407 14.2571L11.1191 16.8821C11.2825 17.0466 11.374 17.2694 11.3732 17.5014C11.3725 17.7333 11.2797 17.9555 11.1152 18.1191ZM20.784 11.0759L14.6656 18.0759C14.5867 18.1662 14.4902 18.2394 14.3819 18.2908C14.2736 18.3423 14.1559 18.3709 14.0361 18.375H14.0066C13.8916 18.375 13.7777 18.3524 13.6715 18.3084C13.5653 18.2644 13.4688 18.1999 13.3875 18.1185L10.7658 15.4935C10.6017 15.3293 10.5096 15.1067 10.5097 14.8746C10.5099 14.6425 10.6021 14.42 10.7663 14.256C10.9305 14.0919 11.1531 13.9998 11.3852 13.9999C11.6173 14 11.8399 14.0923 12.0039 14.2565L13.6336 15.8878C13.676 15.9302 13.7266 15.9634 13.7823 15.9854C13.8381 16.0074 13.8977 16.0178 13.9576 16.0158C14.0175 16.0138 14.0763 15.9995 14.1305 15.9738C14.1846 15.9481 14.2329 15.9116 14.2723 15.8665L19.4677 9.92416C19.6204 9.74939 19.8363 9.64244 20.0679 9.62685C20.2994 9.61126 20.5277 9.68831 20.7025 9.84103C20.8773 9.99376 20.9842 10.2097 20.9998 10.4412C21.0154 10.6728 20.9384 10.9011 20.7856 11.0759H20.784Z" fill="#2D9BEE"/>
</svg>
